SplineFontDB: 1.0
FontName: post_si
FullName: post_si
FamilyName: post_si
Weight: Medium
Copyright: Created by Andrey V. Panov with FontForge 1.0 (http://fontforge.sf.net). This font contains manually edited glyph outlines.
Comments: 2006-5-23: Created.
Version: 1
ItalicAngle: -12
UnderlinePosition: -100
UnderlineWidth: 50
Ascent: 800
Descent: 200
NeedsXUIDChange: 1
XUID: [1021 305 2130962764 5043638]
OS2Version: 0
OS2_WeightWidthSlopeOnly: 0
OS2_UseTypoMetrics: 0
CreationTime: 1148887868
ModificationTime: 1205312138
OS2TypoAscent: 0
OS2TypoAOffset: 1
OS2TypoDescent: 0
OS2TypoDOffset: 1
OS2TypoLinegap: 0
OS2WinAscent: 0
OS2WinAOffset: 1
OS2WinDescent: 0
OS2WinDOffset: 1
HheadAscent: 0
HheadAOffset: 1
HheadDescent: 0
HheadDOffset: 1
OS2Vendor: 'PfEd'
Encoding: UnicodeBmp
UnicodeInterp: none
NameList: Adobe Glyph List
DisplaySize: -48
AntiAlias: 1
FitToEm: 1
WinInfo: 0 16 14
BeginChars: 65536 50
StartChar: E
Encoding: 69 69 0
Width: 597
Flags: HMW
TeX: 0 0 0 0
HStem: 0 72<94 555> 329 61 625 66<241 688>
Fore
241 691 m 1
 688 691 l 1
 674 625 l 1
 317 627 l 1
 266 390 l 1
 596 390 l 1
 584 329 l 1
 254 329 l 1
 199 70 l 1
 570 72 l 1
 555 0 l 1
 94 0 l 1
 241 691 l 1
EndSplineSet
EndChar
StartChar: F
Encoding: 70 70 1
Width: 569
Flags: HMW
TeX: 0 0 0 0
HStem: 0 21G<94 184> 315 61 625 66<241 674>
Fore
241 691 m 1
 674 691 l 1
 660 625 l 1
 317 627 l 1
 264 376 l 1
 565 376 l 1
 552 315 l 1
 250 315 l 1
 184 0 l 1
 94 0 l 1
 241 691 l 1
EndSplineSet
EndChar
StartChar: L
Encoding: 76 76 2
Width: 542
Flags: HMW
TeX: 0 0 0 0
HStem: 0 66<94 499> 673 21G<241 331 331 331>
Fore
241 694 m 1
 331 694 l 1
 197 65 l 1
 513 66 l 1
 499 -0 l 1
 94 -0 l 1
 241 694 l 1
EndSplineSet
EndChar
StartChar: M
Encoding: 77 77 3
Width: 875
Flags: W
TeX: 0 0 0 0
HStem: 0 21G<100 178 697 775>
Fore
100 0 m 1
 248 694 l 1
 362 694 l 1
 430 293 l 2
 447 181 458 116 457 92 c 1
 458 92 l 1
 470 126 556 268 568 292 c 2
 808 694 l 1
 923 694 l 1
 775 0 l 1
 697 0 l 1
 823 592 l 2
 827 612 829 624 829 624 c 1
 829 624 822 606 811 587 c 2
 716 423 l 25
 477 22 l 1
 405 22 l 1
 337 411 l 2
 322 517 310 580 311 624 c 1
 178 0 l 1
 100 0 l 1
EndSplineSet
EndChar
StartChar: T
Encoding: 84 84 4
Width: 680
Flags: HW
TeX: 0 0 0 0
HStem: 0 21G<295 385> 624 65<168 790>
Fore
182 689 m 1
 790 689 l 1
 776 623 l 1
 518 624 l 1
 385 0 l 1
 295 0 l 1
 428 624 l 1
 168 623 l 5
 182 689 l 1
EndSplineSet
EndChar
StartChar: W
Encoding: 87 87 5
Width: 944
Flags: HW
TeX: 0 0 0 0
HStem: -0 21G<217 298 639 726> 674 20G<161 248 583 664 1005 1077>
VStem: 161 87<694 694> 600 102<70 623>
Fore
639 -0 m 1
 613 304 600 499 600 585 c 2
 601 623 l 1
 587 586 l 25
 548.936 503.06 548.936 503.06 506 416 c 24
 298 -0 l 1
 217 -0 l 1
 161 694 l 1
 248 694 l 1
 277 311 l 24
 280.333 259.667 283 192.333 285 109 c 24
 283 71 l 1
 288.03 88.6061 297.697 112.606 312 143 c 2
 360 245 l 24
 583 694 l 1
 664 694 l 1
 682 466.667 693 318.5 697 249.5 c 128
 701 180.5 702.667 120.667 702 70 c 1
 728 136.667 764 215.333 810 306 c 2
 1005 694 l 1
 1077 694 l 1
 726 -0 l 1
 639 -0 l 1
EndSplineSet
EndChar
StartChar: Z
Encoding: 90 90 6
Width: 611
Flags: HW
TeX: 0 0 0 0
HStem: -0 65<55 574> 631 63<203 702>
Fore
203 631 m 1
 216 694 l 1
 702 694 l 1
 697 670 l 26
 693.667 658 689.333 648.667 684 642 c 2
 184 65 l 1
 574 66 l 1
 560 -0 l 1
 55 -0 l 1
 58.3333 23.3333 62.6667 38.6667 68 46 c 256
 71.3333 51.3333 75.6667 57 81 63 c 2
 575 632 l 1
 203 631 l 1
EndSplineSet
EndChar
StartChar: w
Encoding: 119 119 7
Width: 683
Flags: HW
TeX: 0 0 0 0
HStem: -0 21G<152 231 444 531> 425 20G<108 184 398 468 690 763>
VStem: 108 76<445 445>
Fore
421 394 m 1
 415.667 373.333 398 332.333 368 271 c 2
 278 92 l 2
 248 34 232.333 3.33333 231 0 c 1
 152 -0 l 1
 108 445 l 1
 184 445 l 1
 204 221 l 24
 209 132 l 2
 210.333 113.333 210.667 100 210 92 c 26
 208 51 l 1
 217.333 89 255.333 171.333 322 298 c 2
 398 445 l 1
 468 445 l 1
 490 195 l 26
 494 144.333 496.333 103 497 71 c 26
 496 50 l 1
 500.667 67.3333 518.667 107.667 550 171 c 2
 643 355 l 2
 673.667 414.333 689.333 444.333 690 445 c 1
 763 445 l 1
 531 -0 l 1
 444 -0 l 1
 426 197 l 26
 420.667 260.333 418.333 315.667 419 363 c 26
 421 394 l 1
EndSplineSet
EndChar
StartChar: z
Encoding: 122 122 8
Width: 435
Flags: HW
TeX: 0 0 0 0
HStem: -0 62<27 414> 386 59<123 493>
Fore
136 445 m 1
 493 445 l 1
 488 419 l 2
 486 410.333 484.667 405.5 484 404.5 c 128
 483.333 403.5 479.333 399.333 472 392 c 2
 140 62 l 1
 414 63 l 1
 401 -0 l 1
 27 -0 l 1
 30.3333 22 35 36.6667 41 44 c 256
 45.6667 50.6667 60.6667 66.3333 86 91 c 2
 382 386 l 1
 123 385 l 1
 136 445 l 1
EndSplineSet
EndChar
StartChar: Gamma
Encoding: 915 915 9
Width: 542
Flags: HW
TeX: 0 0 0 0
HStem: 0 21G<94 184> 626 65<241 646>
Fore
241 691 m 1
 646 691 l 1
 632 625 l 1
 317 627 l 1
 184 0 l 1
 94 0 l 1
 241 691 l 1
EndSplineSet
EndChar
StartChar: Delta
Encoding: 916 916 10
Width: 833
Flags: HW
TeX: 0 0 0 0
HStem: -0 84<41 790> 674 20G<517 609>
Fore
517 694 m 1
 609 694 l 1
 790 -0 l 1
 41 -0 l 1
 517 694 l 1
537 624 m 1
 529.667 610.667 519.667 594 507 574 c 258
 420 442 l 2
 310 275 310 275 176 84 c 1
 669 84 l 1
 580 432 l 2
 560.667 506.667 548.667 557.667 544 585 c 2
 537 624 l 1
EndSplineSet
EndChar
StartChar: Sigma
Encoding: 931 931 11
Width: 722
Flags: HW
TeX: 0 0 0 0
HStem: -0 70<55 681> 629 65<202 813>
Fore
202 694 m 1
 813 694 l 1
 800 628 l 1
 303 630 l 1
 465 346 l 1
 214 70 l 1
 681 71 l 1
 666 -0 l 1
 55 -0 l 1
 358 334 l 1
 189 630 l 1
 202 694 l 1
EndSplineSet
EndChar
StartChar: Omega
Encoding: 937 937 12
Width: 722
Flags: HW
TeX: 0 0 0 0
HStem: 0 71<44 289 432 692> 655 61<423 585>
VStem: 148 88<340.5 497> 678 91<418.5 568.5>
Fore
499 655 m 0
 391 655 236 580 236 398 c 0
 236 283 295 177 295 64 c 0
 295 43 293 21 289 0 c 1
 44 0 l 1
 59 71 l 1
 233 70 l 1
 215 224 148 282 148 408 c 0
 148 586 334 716 512 716 c 0
 658 716 769 632 769 505 c 0
 769 350 590 218 518 70 c 1
 692 71 l 1
 677 0 l 1
 432 0 l 1
 472 180 678 337 678 500 c 0
 678 593 605 655 499 655 c 0
EndSplineSet
EndChar
StartChar: eta
Encoding: 951 951 13
Width: 514
Flags: HW
TeX: 0 0 0 0
HStem: -195 21G<352 430> -0 21G<144 222> 390 77<199 253.5>
VStem: 454 80<307 363>
Fore
223 467 m 0
 284 467 288 406 292 385 c 1
 324 432 372 467 426 467 c 0
 503 467 534 399 534 327 c 0
 534 292 529 274 522 239 c 2
 430 -195 l 1
 352 -195 l 1
 447 253 l 2
 451 274 454 292 454 307 c 0
 454 366 424 385 390 389 c 1
 309 380 286 298 275 248 c 2
 222 -0 l 1
 144 -0 l 1
 204 281 l 2
 210 313 217 345 217 366 c 0
 217 388 207 390 205 390 c 0
 204 390 l 2
 183 386 180 356 178 355 c 1
 103 355 l 1
 122 428 175 467 223 467 c 0
EndSplineSet
EndChar
StartChar: omega
Encoding: 969 969 14
Width: 667
Flags: HW
TeX: 0 0 0 0
HStem: -11 63<159 235 444 508> 425 20G<249 306 510 604>
VStem: 65 79<91.5 211> 597 79<161 285>
Fore
199 -11 m 0
 119 -11 65 50 65 133 c 0
 65 195 96 310 249 445 c 1
 343 445 l 1
 324 429 144 283 144 139 c 0
 144 93 166 52 212 52 c 0
 258 52 303.954 90.017 326 150 c 0
 332.985 169.005 342 214 353 264 c 1
 423 264 l 1
 406 178 401 165 401 141 c 0
 401 87 430 52 473 52 c 0
 533 52 597 124 597 228 c 0
 597 342 518 430 510 445 c 1
 604 445 l 1
 641 395 676 327 676 240 c 0
 676 82 556 -11 460 -11 c 0
 428 -11 377 -2 345 60 c 1
 306 19 257 -11 199 -11 c 0
EndSplineSet
EndChar
StartChar: afii10051
Encoding: 1026 1026 15
Width: 819
Flags: HW
TeX: 0 0 0 0
HStem: -22 61<548.5 635.5> 406 61<570.5 734> 630 64<169 791>
VStem: 769 82<307 393>
Fore
183 694 m 1
 791 694 l 1
 778 629 l 1
 518 630 l 1
 465 378 l 1
 525 433 598 467 687 467 c 0
 781 467 851 438 851 348 c 0
 851 301 817 165 817 165 c 2
 787 73 696 -22 575 -22 c 0
 522 -22 498 -16 454 -0 c 1
 486 68 l 1
 522 48 538 39 588 39 c 0
 679 39 722.743 114.079 739 167 c 0
 743.922 183.024 769 296 769 318 c 0
 769 371 733 406 623 406 c 0
 518 406 466.147 323.938 449 283 c 0
 438.094 256.961 433 227 384 -0 c 1
 295 -0 l 1
 429 630 l 1
 169 628 l 1
 183 694 l 1
EndSplineSet
EndChar
StartChar: afii10060
Encoding: 1035 1035 16
Width: 764
Flags: HW
TeX: 0 0 0 0
HStem: -0 21G<260 349 582 660> 394 61<533 649.5> 629 65<169 777>
VStem: 648 82<316.5 382.5>
Fore
183 694 m 1
 777 694 l 1
 763 629 l 1
 483 630 l 1
 431 382 l 1
 470 418 527 455 603 455 c 0
 696 455 730 414 730 351 c 0
 730 330 726 308 722 288 c 2
 660 -0 l 1
 582 -0 l 1
 642 280 l 2
 645 294 648 309 648 324 c 0
 648 380 598 394 548 394 c 0
 518 394 430.727 380.846 399 233 c 2
 349 -0 l 1
 260 -0 l 1
 394 629 l 1
 169 628 l 1
 183 694 l 1
EndSplineSet
EndChar
StartChar: afii10018
Encoding: 1041 1041 17
Width: 667
Flags: HW
TeX: 0 0 0 0
HStem: -0 56<96 351> 2 55.4643<371 371 395 395> 330 62<251 430.5> 628 66<243 701>
VStem: 572 82<169 262.5>
Fore
403 392 m 2xb8
 458 392 508 393 563 365 c 0
 606 343 654 299 654 226 c 0
 654 112 530 16 395 2 c 0x78
 377 0 360 -0 342 -0 c 2
 96 -0 l 1
 243 694 l 1
 701 694 l 1
 688 628 l 1
 314 630 l 1
 263 392 l 1
 403 392 l 2xb8
305 56 m 2xb8
 327 56 349 55 371 57 c 0
 481 67 571 139 572 213 c 0
 571 264 526 320 429 329 c 0
 409 331 390 330 371 330 c 2
 251 330 l 1
 192 56 l 1
 305 56 l 2xb8
EndSplineSet
EndChar
StartChar: afii10020
Encoding: 1043 1043 18
Width: 542
Flags: HW
TeX: 0 0 0 0
HStem: -0 21G<94 184> 629 65<241 646>
Fore
241 694 m 1
 646 694 l 1
 633 628 l 1
 317 630 l 1
 184 -0 l 1
 94 -0 l 1
 241 694 l 1
EndSplineSet
EndChar
StartChar: afii10022
Encoding: 1045 1045 19
Width: 597
Flags: MW
TeX: 0 0 0 0
HStem: 0 70<94 570> 330 61 629 65<241 689>
Fore
241 694 m 1
 689 694 l 1
 675 628 l 1
 317 630 l 1
 267 392 l 1
 597 392 l 1
 584 330 l 1
 254 330 l 1
 199 70 l 1
 570 72 l 1
 555 -0 l 1
 94 -0 l 1
 241 694 l 1
EndSplineSet
EndChar
StartChar: afii10036
Encoding: 1058 1058 20
Width: 680
Flags: HW
TeX: 0 0 0 0
HStem: -0 21G<294 384> 630 64<169 790>
Fore
183 694 m 1
 790 694 l 1
 777 628 l 1
 518 630 l 1
 384 -0 l 1
 294 -0 l 1
 428 630 l 1
 169 628 l 1
 183 694 l 1
EndSplineSet
EndChar
StartChar: afii10044
Encoding: 1066 1066 21
Width: 868
Flags: HW
TeX: 0 0 0 0
HStem: -0 56<298 552.5> 2 55.5778<573 573 597 597> 330 62<452 632> 630 64<169 529>
VStem: 773 83<175.5 262.5>
Fore
604 392 m 2xb8
 660 392 710 393 765 365 c 0
 808 343 856 299 856 226 c 0
 856 125 747 17 597 2 c 0x78
 579 -0 561 -0 544 -0 c 2
 298 -0 l 1
 431 630 l 1
 169 628 l 1
 183 694 l 1
 529 694 l 1
 465 392 l 1
 604 392 l 2xb8
506 56 m 2xb8
 528 56 551 55 573 57 c 0
 683 67 772 139 773 213 c 0
 773 264 728 320 630 329 c 0
 611 331 592 330 572 330 c 2
 452 330 l 1
 394 56 l 1
 506 56 l 2xb8
EndSplineSet
EndChar
StartChar: afii10068
Encoding: 1075 1075 22
Width: 404
Flags: HW
TeX: 0 0 0 0
HStem: 0 21G<80 158> 385 60<175 473>
Fore
175 445 m 5
 473 445 l 1
 460 385 l 1
 240 386 l 1
 158 0 l 1
 80 0 l 1
 175 445 l 5
EndSplineSet
EndChar
StartChar: afii10084
Encoding: 1090 1090 23
Width: 458
Flags: HW
TeX: 0 0 0 0
HStem: -0 21G<190 268> 383 62<106 527>
Fore
119 445 m 5
 527 445 l 1
 514 382 l 1
 349 383 l 1
 268 -0 l 1
 190 -0 l 1
 271 383 l 1
 106 382 l 1
 119 445 l 5
EndSplineSet
EndChar
StartChar: afii10092
Encoding: 1098 1098 24
Width: 590
Flags: HW
TeX: 0 0 0 0
HStem: 0 64<280 379> 216 56<313 431> 383 62<106 361>
VStem: 517 71<139 187.5>
Fore
414 272 m 2
 448 272 489 273 528 252 c 0
 545 243 588 215 588 160 c 0
 588 124 559 14 411 1 c 0
 389 -1 367 0 345 0 c 2
 191 0 l 1
 273 383 l 1
 106 382 l 1
 119 445 l 1
 361 445 l 1
 324 272 l 1
 414 272 l 2
517 150 m 0
 517 187 474 216 421 216 c 2
 313 216 l 1
 280 64 l 1
 361 64 l 2
 397 64 448 64 485 93 c 0
 502 106 517 128 517 150 c 0
EndSplineSet
EndChar
StartChar: afii10146
Encoding: 1122 1122 25
Width: 778
Flags: HW
TeX: 0 0 0 0
HStem: 0 56<208 463> 330 62<362 515> 573 65<130 343 414 765>
VStem: 684 82<175.5 262.5>
Fore
414 573 m 1
 375 392 l 1
 515 392 l 2
 563 392 620 393 675 365 c 0
 718 343 766 299 766 226 c 0
 766 125 657 18 509 2 c 0
 490 0 472 0 454 0 c 2
 208 0 l 1
 330 573 l 1
 130 572 l 1
 144 638 l 1
 343 638 l 1
 367 750 l 1
 451 750 l 1
 427 638 l 1
 765 638 l 1
 752 572 l 1
 414 573 l 1
416 56 m 2
 505 56 568 63 630 116 c 0
 659 140 684 175 684 214 c 0
 684 275 624 321 542 329 c 0
 522 331 502 330 482 330 c 2
 362 330 l 1
 304 56 l 1
 416 56 l 2
EndSplineSet
EndChar
StartChar: afii10194
Encoding: 1123 1123 26
Width: 500
Flags: HMW
TeX: 0 0 0 0
HStem: 0 64<190 270> 216 56<222 336.5> 386 59<113 183 100 195 270 397> 639 -21
VStem: 426 72<138.5 168.5>
Fore
237 639 m 1
 312 639 l 1
 270 445 l 1
 409 445 l 1
 397 386 l 1
 258 386 l 1
 234 272 l 1
 323 272 l 2
 350 272 449 277 487 205 c 0
 494 191 498 176 498 160 c 0
 498 101.913 441.225 0 301 -0 c 2
 101 0 l 1
 183 386 l 1
 100 386 l 1
 113 445 l 1
 195 445 l 1
 237 639 l 1
426 150 m 0
 426 187 384 216 331 216 c 2
 222 216 l 1
 190 64 l 1
 270 64 l 2
 294 64 382 59 417 119 c 0
 423 129 426 139 426 150 c 0
EndSplineSet
EndChar
StartChar: uni0466
Encoding: 1126 1126 27
Width: 844
Flags: HW
TeX: 0 0 0 0
HStem: -0 21G<27 105 375 448 718 815> 256 56<328 628> 674 20G<522 615>
Fore
502 256 m 1
 448 -0 l 1
 375 -0 l 1
 430 256 l 1
 341 256 l 2
 301 256 288 257 288 257 c 1
 105 -0 l 1
 27 -0 l 1
 522 694 l 1
 615 694 l 1
 815 -0 l 1
 718 -0 l 1
 644 257 l 1
 644 257 630 256 620 256 c 1
 502 256 l 1
544 624 m 1
 514 575 422 448 328 312 c 1
 628 312 l 1
 554 579 l 2
 546 608 544 624 544 624 c 1
EndSplineSet
EndChar
StartChar: uni0492
Encoding: 1170 1170 28
Width: 542
Flags: MW
TeX: 0 0 0 0
HStem: -0 21G<94 184> 332 58<102 164 89 177 267 369> 629 65<241 646>
Fore
241 694 m 1
 646 694 l 1
 633 628 l 1
 317 630 l 1
 267 390 l 1
 381 390 l 1
 369 332 l 1
 254 332 l 1
 184 -0 l 1
 94 -0 l 1
 164 332 l 1
 89 332 l 1
 102 390 l 1
 177 390 l 1
 241 694 l 1
EndSplineSet
EndChar
StartChar: uni0493
Encoding: 1171 1171 29
Width: 404
Flags: MW
TeX: 0 0 0 0
HStem: -0 21G<79 158> 216 56<76 125 64 137 215 304> 385 60<174 473>
Fore
174 445 m 1
 473 445 l 1
 460 385 l 1
 239 386 l 1
 215 272 l 1
 315 272 l 5
 304 216 l 5
 204 216 l 1
 158 -0 l 1
 79 -0 l 1
 125 216 l 1
 64 216 l 1
 76 272 l 1
 137 272 l 1
 174 445 l 1
EndSplineSet
EndChar
StartChar: uni0494
Encoding: 1172 1172 30
Width: 708
Flags: HW
TeX: 0 0 0 0
HStem: -217 62<326 449.5> -0 21G<94 184> 330 62<254 380> 628 66<241 689>
VStem: 596 83<78 217.5>
Fore
241 694 m 1
 689 694 l 1
 675 628 l 1
 317 630 l 1
 267 392 l 1
 352 392 l 2
 408 392 495 397 570 359 c 0
 634 328 679 268 679 167 c 0
 679 -11 543 -217 356 -217 c 0
 296 -217 281 -211 237 -195 c 1
 269 -127 l 1
 306 -148 319 -155 371 -155 c 0
 496 -155 596 15 596 149 c 0
 596 257 528.993 319.908 405 329 c 0
 377.999 330.98 352 330 325 330 c 2
 254 330 l 1
 184 -0 l 1
 94 -0 l 1
 241 694 l 1
EndSplineSet
EndChar
StartChar: uni0495
Encoding: 1173 1173 31
Width: 536
Flags: HW
TeX: 0 0 0 0
HStem: -205 63<219.5 321> 0 21G<80 158> 216 56<204 309.5> 385 60<175 473>
VStem: 425 72<44.5 175.5>
Fore
175 445 m 1
 473 445 l 1
 460 385 l 1
 240 386 l 1
 216 272 l 1
 300 272 l 2
 319 272 338 273 356 271 c 0
 409 265 497 239 497 112 c 0
 497 -22 402 -205 240 -205 c 0
 199 -205 180 -201 154 -195 c 1
 185 -129 l 1
 212 -138 235 -142 255 -142 c 0
 357 -142 425 -6 425 95 c 0
 425 227 300 216 272 216 c 2
 204 216 l 1
 158 0 l 1
 80 0 l 1
 175 445 l 1
EndSplineSet
EndChar
StartChar: uni04A0
Encoding: 1184 1184 32
Width: 896
Flags: HW
TeX: 0 0 0 0
HStem: -0 21G<297 383 759 853> 630 64<169 530>
Fore
183 694 m 1
 530 694 l 1
 451 323 l 1
 893 694 l 1
 986 694 l 1
 660 420 l 1
 853 -0 l 1
 759 -0 l 1
 593 363 l 1
 431 228 l 1
 383 -0 l 1
 297 -0 l 1
 430 630 l 1
 169 628 l 1
 183 694 l 1
EndSplineSet
EndChar
StartChar: uni04A1
Encoding: 1185 1185 33
Width: 598
Flags: HW
TeX: 0 0 0 0
HStem: 0 21G<191 264 499 581> 383 62<106 358>
Fore
119 445 m 5
 358 445 l 1
 314 236 l 1
 563 445 l 1
 653 445 l 1
 447 272 l 1
 581 0 l 1
 499 0 l 1
 390 224 l 1
 294 145 l 1
 264 0 l 1
 191 0 l 1
 273 383 l 1
 106 382 l 1
 119 445 l 5
EndSplineSet
EndChar
StartChar: uni04A4
Encoding: 1188 1188 34
Width: 896
Flags: MW
TeX: 0 0 0 0
HStem: -0 21G<94 184 510 599> 330 62<267 580 254 593> 629 65<657 1006>
Fore
241 694 m 1
 331 694 l 1
 267 392 l 1
 593 392 l 1
 657 694 l 1
 1006 694 l 1
 993 628 l 1
 733 630 l 1
 599 -0 l 1
 510 -0 l 1
 580 330 l 1
 254 330 l 1
 184 -0 l 1
 94 -0 l 1
 241 694 l 1
EndSplineSet
EndChar
StartChar: uni04A5
Encoding: 1189 1189 35
Width: 647
Flags: MW
TeX: 0 0 0 0
HStem: 0 21G<81 156 379 454> 216 56<214 425 202 437> 383 62<474 716>
Fore
176 445 m 1
 251 445 l 1
 214 272 l 1
 437 272 l 1
 474 445 l 1
 716 445 l 1
 702 382 l 1
 536 383 l 1
 454 0 l 1
 379 0 l 1
 425 216 l 1
 202 216 l 1
 156 0 l 1
 81 0 l 1
 176 445 l 1
EndSplineSet
EndChar
StartChar: uni04AC
Encoding: 1196 1196 36
Width: 680
Flags: MW
TeX: 0 0 0 0
HStem: -195 21G<351 415> 0 65<294 470> 630 64<169 790>
Fore
183 694 m 1
 790 694 l 1
 777 628 l 1
 518 630 l 1
 398 65 l 1
 470 65 l 1
 415 -195 l 1
 351 -195 l 1
 393 -0 l 1
 294 -0 l 1
 428 630 l 1
 169 628 l 1
 183 694 l 1
EndSplineSet
EndChar
StartChar: uni04AD
Encoding: 1197 1197 37
Width: 458
Flags: MW
TeX: 0 0 0 0
HStem: -162 21<236 300 236 236> 0 61<190 271> 383 62<106 527>
Fore
119 445 m 1
 527 445 l 1
 514 382 l 1
 349 383 l 1
 281 61 l 1
 348 61 l 1
 300 -162 l 1
 236 -162 l 1
 271 -0 l 1
 190 -0 l 1
 271 383 l 1
 106 382 l 1
 119 445 l 1
EndSplineSet
EndChar
StartChar: uni04B4
Encoding: 1204 1204 38
Width: 912
Flags: HW
TeX: 0 0 0 0
HStem: -195 21G<770 834> -0 67<240 812> 629 65<139 711>
Fore
153 694 m 1
 711 694 l 1
 698 628 l 1
 463 630 l 1
 344 67 l 1
 726 67 l 1
 859 694 l 1
 948 694 l 1
 815 67 l 1
 890 67 l 1
 834 -195 l 1
 770 -195 l 1
 812 -0 l 1
 240 -0 l 1
 374 630 l 1
 139 628 l 1
 153 694 l 1
EndSplineSet
EndChar
StartChar: uni04E0
Encoding: 1248 1248 39
Width: 546
Flags: HW
TeX: 0 0 0 0
HStem: -22 64<211.5 343> 615 79<172 658>
VStem: 73 80<73.5 146.5> 466 89<158 270.5>
Fore
189 694 m 1
 658 694 l 1
 641 613 l 1
 351 391 l 1
 350 385 l 1
 506 383 555 285 555 218 c 0
 555 98 423 -22 263 -22 c 0
 160 -22 73 19 73 128 c 0
 73 137 74 147 75 156 c 1
 154 163 l 1
 154 157 153 150 153 143 c 0
 153 71 209 42 278 42 c 0
 388 42 466 125 466 215 c 0
 466 326 345 325 337 325 c 2
 243 330 l 1
 256 391 l 1
 546 614 l 1
 546 615 l 1
 172 613 l 1
 189 694 l 1
EndSplineSet
EndChar
StartChar: uni04E1
Encoding: 1249 1249 40
Width: 435
Flags: HW
TeX: 0 0 0 0
HStem: -205 64<154.5 230> 377 68<121 493>
VStem: 326 78<-28.5 52>
Fore
260 187 m 1
 363 180 404 107 404 34 c 0
 404 -91 287 -205 169 -205 c 0
 140 -205 63 -200 15 -123 c 1
 45 -58 l 1
 61 -87 74 -104 102 -120 c 0
 122 -132 149 -141 181 -141 c 0
 279 -141 326 -40 326 34 c 0
 326 70 312 124 240 124 c 2
 158 124 l 1
 169 177 166 177 180 190 c 2
 370 353 l 2
 379 361 388 369 396 377 c 1
 121 375 l 1
 136 445 l 1
 493 445 l 1
 481 387 l 2
 480 380 472 369 467 365 c 2
 260 187 l 1
EndSplineSet
EndChar
StartChar: uni04F6
Encoding: 1270 1270 41
Width: 542
Flags: MW
TeX: 0 0 0 0
HStem: -195 21G<151 215> -0 62<94 269> 629 65<241 646>
Fore
241 694 m 1
 646 694 l 1
 633 628 l 1
 317 630 l 1
 197 62 l 1
 269 62 l 1
 215 -195 l 1
 151 -195 l 1
 192 -0 l 1
 94 -0 l 1
 241 694 l 1
EndSplineSet
EndChar
StartChar: uni04F7
Encoding: 1271 1271 42
Width: 404
Flags: MW
TeX: 0 0 0 0
HStem: -162 21<126 190 126 126> 0 61<80 238> 385 60<175 473>
Fore
175 445 m 1
 473 445 l 1
 460 385 l 1
 240 386 l 1
 171 61 l 1
 238 61 l 1
 190 -162 l 1
 126 -162 l 1
 161 0 l 1
 80 0 l 1
 175 445 l 1
EndSplineSet
EndChar
StartChar: two
Encoding: 50 50 43
Width: 500
Flags: HW
TeX: 0 0 0 0
HStem: 0 70<50 465> 613 65<296.5 433.5>
VStem: 469 84<432 562.5>
Fore
380 678 m 0
 487 678 553 613 553 512 c 0
 553 382 458.893 315.147 344 231 c 0
 273 179 205 124 136 70 c 1
 465 71 l 1
 450 0 l 1
 50 0 l 1
 64 64 59 61 78 76 c 2
 244 212 l 2
 316 268 469 366 469 498 c 0
 469 569 422 613 353 613 c 0
 240 613 198 487 182 459 c 1
 151 514 l 1
 165 552 240 678 380 678 c 0
EndSplineSet
EndChar
StartChar: three
Encoding: 51 51 44
Width: 500
Flags: HW
TeX: 0 0 0 0
HStem: -22 62<187.5 313.5> 323 62<235 248> 619 59<322 435>
VStem: 411 89<159.5 267.5> 461 83<527 590.5>
Fore
392 678 m 0
 478 678 544 628 544 553 c 0xe8
 544 513 519 415 394 354 c 1
 470 326 500 270 500 215 c 0
 500 104 384 -22 243 -22 c 0
 132 -22 82 43 59 80 c 1
 83 142 l 1
 94.1327 121.668 111.839 97.4899 116 94 c 0
 147 68 183 40 254 40 c 0
 349 40 411 137 411 220 c 0xf0
 411 315 336 323 307 323 c 2
 235 323 l 1
 248 385 l 1
 316 390 330 388 363 404 c 0
 431 438 461 507 461 547 c 0
 461 590 430 619 379 619 c 0xe8
 265 619 201 514 201 514 c 1
 176 568 l 1
 261 670 363 678 392 678 c 0
EndSplineSet
EndChar
StartChar: six
Encoding: 54 54 45
Width: 500
Flags: HW
TeX: 0 0 0 0
HStem: -22 62<215.5 302.5> 401 61<304 416> 619 59<376.5 474.5>
VStem: 93 78<96 206> 432 82<270.5 316>
Fore
453 678 m 0
 496 678 525 670 556 658 c 1
 543 598 l 1
 507 611 475 619 444 619 c 0
 349 619 256 542 207 380 c 1
 257 426 319 462 394 462 c 0
 438 462 471 446 496 385 c 0
 506 361 514 333 514 299 c 0
 514 254 500 188 478 142 c 0
 448 80 383 19 329 -5 c 0
 306 -15 279 -22 246 -22 c 0
 185 -22 93 12 93 180 c 0
 93 232 105 348 150 442 c 0
 192 531 300 678 453 678 c 0
341 401 m 0
 273 401 171 338 171 167 c 0
 171 57 224 40 260 40 c 0
 345 40 390 124 401 150 c 0
 413 176 432 249 432 292 c 0
 432 336 414 401 341 401 c 0
EndSplineSet
EndChar
StartChar: seven
Encoding: 55 55 46
Width: 500
Flags: MW
TeX: 0 0 0 0
HStem: -11 21G<150 234> 585 71<181 515 166 597>
Fore
181 656 m 1
 597 656 l 1
 582 585 589 597 562 570 c 0
 430 438 291 250 234 -11 c 1
 150 -11 l 1
 203 245 363 455 515 585 c 1
 166 585 l 1
 181 656 l 1
EndSplineSet
EndChar
StartChar: nine
Encoding: 57 57 47
Width: 500
Flags: HW
TeX: 0 0 0 0
HStem: -22 62<174.5 262> 193 62<218 335.5> 619 59<335 449.5>
VStem: 125 81<335.5 454> 469 77<447 548.5>
Fore
396 678 m 0
 503 678 546 590 546 478 c 0
 546 416 530 320 505 254 c 0
 448 95 323 -22 201 -22 c 0
 148 -22 113 -9 77 24 c 1
 119 78 l 1
 140 61 160 40 213 40 c 0
 301 40 390 126 432 276 c 1
 349 196 268 193 245 193 c 0
 191 193 168 220 151 251 c 0
 137 279 125 314 125 357 c 0
 125 551 274 678 396 678 c 0
297 255 m 0
 366 255 469 318 469 496 c 0
 469 601 418 619 384 619 c 0
 343 619 314 602 292 581 c 0
 247 540 230 498 216 436 c 0
 207 393 206 378 206 364 c 0
 206 327 220 255 297 255 c 0
EndSplineSet
EndChar
StartChar: afii10042
Encoding: 1064 1064 48
Width: 1083
Flags: HW
TeX: 0 0 0 0
HStem: -0 67<194 511 597 917> 674 20G<241 327 644 729 1049 1135>
Fore
94 -0 m 1
 241 694 l 1
 327 694 l 1
 194 67 l 1
 512 67 l 1
 645 694 l 1
 731 694 l 1
 599 67 l 1
 917 67 l 1
 1049 694 l 1
 1135 694 l 1
 988 -0 l 1
 94 -0 l 1
EndSplineSet
EndChar
StartChar: afii10043
Encoding: 1065 1065 49
Width: 1100
Flags: HW
TeX: 0 0 0 0
HStem: -195 21G<958 1022> -0 67<194 511 597 917> 674 20G<241 327 644 729 1049 1135>
Fore
94 -0 m 1
 241 694 l 1
 327 694 l 1
 194 67 l 1
 512 67 l 1
 645 694 l 1
 731 694 l 1
 599 67 l 1
 917 67 l 1
 1049 694 l 1
 1135 694 l 1
 1003 67 l 1
 1077 67 l 1
 1022 -195 l 1
 958 -195 l 1
 999 -0 l 1
 94 -0 l 1
EndSplineSet
EndChar
